<?xml version="1.0" standalone="no"?>
<!DOCTYPE svg PUBLIC "-//W3C//DTD SVG 20010904//EN"
 "http://www.w3.org/TR/2001/REC-SVG-20010904/DTD/svg10.dtd">
<svg version="1.0" xmlns="http://www.w3.org/2000/svg"
 width="2208.000000pt" height="2208.000000pt" viewBox="0 0 2208.000000 2208.000000"
 preserveAspectRatio="xMidYMid meet">
<metadata>
Created by potrace 1.14, written by Peter Selinger 2001-2017
</metadata>
<g transform="translate(0.000000,2208.000000) scale(0.100000,-0.100000)"
fill="#000000" stroke="none">
<path d="M10628 22075 c-2 -2 -68 -6 -148 -9 -80 -4 -167 -9 -195 -11 -27 -2
-86 -7 -130 -10 -44 -3 -98 -7 -120 -10 -22 -2 -69 -7 -105 -11 -36 -3 -76 -7
-90 -9 -14 -1 -54 -6 -90 -9 -36 -4 -76 -9 -90 -11 -14 -2 -47 -6 -75 -10 -27
-3 -63 -8 -80 -11 -16 -2 -43 -6 -60 -9 -43 -5 -165 -24 -200 -30 -16 -3 -46
-8 -65 -11 -19 -3 -46 -8 -60 -10 -14 -3 -47 -9 -75 -14 -27 -5 -63 -12 -80
-15 -16 -3 -39 -7 -50 -9 -11 -3 -65 -14 -120 -25 -55 -11 -131 -27 -170 -36
-38 -9 -81 -19 -95 -21 -107 -19 -720 -190 -877 -244 -46 -16 -83 -27 -83 -24
0 2 -13 -2 -30 -11 -16 -8 -31 -15 -32 -15 -2 1 -10 -1 -18 -4 -161 -55 -198
-68 -215 -75 -11 -5 -72 -28 -135 -51 -103 -38 -408 -161 -485 -195 -16 -7
-57 -26 -90 -40 -153 -68 -262 -119 -282 -132 -12 -8 -24 -14 -27 -14 -18 3
-555 -278 -701 -366 -11 -7 -27 -16 -35 -20 -109 -54 -633 -391 -856 -551 -75
-53 -146 -104 -158 -112 -54 -37 -459 -352 -476 -370 -3 -3 -32 -28 -65 -55
-33 -28 -62 -52 -65 -55 -3 -3 -32 -28 -65 -55 -33 -28 -62 -52 -65 -55 -3 -3
-30 -27 -60 -55 -209 -189 -276 -252 -454 -430 -206 -205 -295 -298 -426 -444
-41 -46 -79 -89 -85 -95 -58 -65 -221 -258 -270 -321 -16 -21 -35 -43 -40 -49
-6 -6 -53 -65 -104 -131 -51 -66 -98 -127 -104 -135 -94 -119 -254 -347 -404
-575 -163 -247 -176 -266 -189 -290 -6 -11 -47 -81 -91 -155 -200 -333 -470
-855 -603 -1165 -12 -27 -29 -66 -37 -85 -9 -19 -17 -37 -17 -40 -1 -3 -16
-41 -35 -85 -18 -44 -40 -96 -48 -115 -8 -19 -19 -44 -24 -55 -5 -11 -20 -49
-33 -85 -13 -36 -49 -135 -81 -220 -168 -458 -331 -1025 -431 -1505 -18 -86
-55 -279 -59 -310 -4 -22 -8 -47 -10 -55 -3 -8 -7 -33 -10 -55 -3 -22 -8 -51
-10 -65 -3 -14 -7 -43 -11 -65 -3 -22 -7 -51 -10 -65 -3 -14 -7 -41 -9 -60 -4
-32 -10 -76 -21 -157 -2 -18 -6 -50 -9 -70 -9 -60 -14 -103 -20 -173 -3 -36
-7 -83 -10 -105 -7 -54 -14 -124 -21 -220 -3 -44 -7 -100 -9 -125 -14 -180
-20 -409 -20 -750 1 -416 6 -594 30 -880 17 -206 17 -213 30 -322 3 -24 7 -64
10 -90 3 -26 7 -62 9 -80 3 -18 10 -73 16 -123 6 -49 18 -130 27 -180 8 -49
16 -101 18 -115 29 -226 166 -851 256 -1170 64 -227 188 -616 255 -800 72
-195 221 -566 284 -705 10 -22 37 -83 60 -135 116 -257 359 -721 532 -1012 40
-68 77 -131 83 -140 47 -81 333 -519 344 -528 3 -3 20 -25 36 -50 86 -129 286
-394 463 -615 80 -99 148 -182 151 -185 4 -3 51 -57 106 -120 296 -342 738
-786 1045 -1050 61 -52 79 -68 141 -121 54 -47 112 -95 269 -222 110 -89 384
-295 495 -372 132 -93 357 -245 362 -245 2 0 19 -11 37 -25 18 -14 38 -25 44
-25 6 0 12 -3 14 -7 1 -5 28 -23 58 -42 96 -60 343 -206 390 -232 25 -13 47
-26 50 -29 3 -3 19 -12 35 -20 17 -8 46 -24 65 -36 147 -88 631 -327 895 -442
207 -90 670 -273 725 -287 8 -2 62 -21 120 -41 352 -124 982 -297 1310 -360
14 -3 81 -16 150 -30 69 -14 137 -27 152 -29 15 -2 51 -8 80 -14 29 -6 71 -13
93 -16 40 -6 139 -21 185 -29 14 -3 48 -7 75 -10 28 -3 59 -7 70 -9 11 -3 52
-8 90 -12 95 -11 100 -12 175 -19 36 -4 83 -9 105 -11 86 -10 140 -15 223 -21
48 -3 103 -8 122 -9 274 -27 1190 -26 1505 0 28 2 84 7 125 10 73 5 116 9 230
21 110 11 146 14 185 19 22 3 63 7 90 10 28 3 61 8 75 10 32 5 102 15 137 19
34 5 56 8 248 41 208 35 201 34 288 51 42 8 90 17 105 20 15 3 35 7 44 10 10
3 30 7 45 10 16 3 87 19 158 35 72 17 139 32 150 35 95 19 487 130 695 196 68
22 131 41 140 43 13 3 117 40 315 111 80 29 315 120 360 139 17 7 66 27 110
45 44 18 108 46 143 62 35 15 65 28 68 28 4 0 128 58 254 118 30 15 57 27 60
27 7 1 302 151 390 198 432 231 822 471 1193 736 82 58 159 113 170 121 49 33
240 180 357 274 529 423 1017 894 1480 1426 12 14 36 42 53 63 18 22 40 49 51
60 10 12 53 65 95 117 42 52 81 100 86 106 6 6 21 26 35 44 14 18 46 61 72 94
61 78 50 63 144 191 199 269 505 736 646 985 179 316 281 509 408 775 91 188
112 233 114 245 1 3 14 32 29 65 16 33 58 132 94 220 36 88 71 174 78 190 7
17 32 82 55 145 23 63 48 129 55 145 69 164 310 966 350 1163 2 10 15 69 29
132 72 315 153 767 180 1005 4 28 8 60 10 72 3 12 8 53 11 90 4 37 8 79 10 93
2 14 7 59 11 100 3 41 8 89 10 105 2 17 6 68 9 115 3 47 8 110 10 140 27 341
27 1177 0 1490 -2 25 -7 81 -10 125 -8 114 -23 273 -30 330 -3 17 -7 55 -10
85 -3 30 -7 64 -9 75 -2 11 -7 47 -10 80 -4 33 -9 71 -11 85 -3 14 -7 41 -9
60 -3 19 -10 69 -16 110 -7 41 -13 84 -15 95 -31 209 -123 651 -191 920 -109
430 -236 828 -400 1255 -27 69 -49 127 -49 130 -1 3 -11 27 -23 53 -12 27 -22
51 -22 53 0 6 -81 193 -153 354 -106 236 -327 671 -441 865 -22 39 -41 72 -41
75 0 3 -8 16 -17 30 -9 14 -50 81 -91 150 -112 189 -366 583 -409 635 -5 6
-59 80 -121 166 -144 200 -409 539 -502 643 -5 6 -39 45 -75 86 -36 41 -77 88
-92 105 -14 16 -36 41 -48 55 -109 127 -528 555 -686 700 -108 100 -168 154
-238 215 -38 33 -74 65 -80 70 -6 6 -54 47 -106 90 -52 44 -97 82 -100 85 -3
3 -25 21 -50 40 -25 19 -47 37 -50 40 -3 3 -25 21 -50 40 -25 19 -47 37 -50
40 -3 3 -23 18 -45 35 -22 16 -42 31 -45 35 -3 3 -57 44 -120 91 -385 288
-843 584 -1270 819 -52 29 -117 65 -145 80 -65 36 -473 240 -479 240 -3 0 -42
18 -86 39 -44 22 -83 40 -85 41 -5 1 -91 38 -150 65 -16 8 -59 26 -95 40 -36
15 -78 33 -95 40 -192 84 -604 232 -915 329 -262 81 -705 201 -821 221 -16 3
-59 12 -96 21 -38 9 -79 18 -93 21 -14 2 -81 15 -150 29 -69 14 -137 27 -152
29 -15 2 -51 8 -80 14 -29 6 -71 13 -93 16 -40 6 -139 21 -185 29 -14 3 -47 7
-75 10 -27 3 -59 7 -70 10 -11 2 -49 7 -85 11 -36 4 -72 8 -80 10 -8 2 -53 6
-100 10 -47 4 -92 8 -100 10 -8 2 -51 6 -95 10 -44 3 -96 8 -115 10 -19 2 -87
7 -150 10 -63 4 -137 9 -165 12 -59 5 -982 12 -987 8z"/>
</g>
</svg>
